<svg xmlns="http://www.w3.org/2000/svg" width="24" height="24" viewBox="0 0 24 24">
  <path fill="#FFF" fill-rule="evenodd" d="M5.99931422,15.277 L6,23 C6,23.5522847 5.55228475,24 5,24 L2,24 C1.44771525,24 1,23.5522847 1,23 L0.999314222,19.184 L5.99931422,15.277 Z M14.4993142,8.636 L14.5,23 C14.5,23.5522847 14.0522847,24 13.5,24 L10.5,24 C9.94771525,24 9.5,23.5522847 9.5,23 L9.49931422,12.543 L14.4993142,8.636 Z M17.9993142,8.334 L22.9993142,12.102 L23,23 C23,23.5522847 22.5522847,24 22,24 L19,24 C18.4477153,24 18,23.5522847 18,23 L17.9993142,8.334 Z M5,0 C5.55228475,0 6,0.44771525 6,1 L5.99931422,11.471 L0.999314222,15.378 L1,1 C1,0.44771525 1.44771525,0 2,0 L5,0 Z M13.5,0 C14.0522847,0 14.5,0.44771525 14.5,1 L14.4993142,4.831 L9.49931422,8.737 L9.5,1 C9.5,0.44771525 9.94771525,0 10.5,0 L13.5,0 Z M22,0 C22.5522847,0 23,0.44771525 23,1 L22.9993142,8.347 L17.9993142,4.579 L18,1 C18,0.44771525 18.4477153,0 19,0 L22,0 Z"/>
</svg>
