<svg xmlns="http://www.w3.org/2000/svg" width="14" height="14" viewBox="0 0 14 14">
  <g fill="none" fill-rule="evenodd">
    <path fill="#FF3333" d="M10.9042824,3.00910683 C11.2387055,3.58283713 11.4285714,4.24483363 11.4285714,4.95096322 C11.4285714,6.4178634 10.6086957,7.69562172 9.39182739,8.3765324 C9.30552468,8.42486865 9.27316116,8.53204904 9.31847009,8.61821366 L11.4285714,13 L5.25868281,13 L2.33977723,13 C2.15212345,13 2,12.8482757 2,12.6538048 L2,1.34619522 C2,1.15499688 2.14831543,1 2.33977723,1 L7.66022277,1 C7.70154149,1 7.74113764,1.00735588 7.77776658,1.02090429 C9.06453828,1.14454004 10.1733884,1.85385291 10.8222949,2.87250438 C10.7991953,2.84484806 10.8444991,2.94917476 10.9042824,3.00910683 Z"/>
    <path fill="#000000" fill-opacity=".31" d="M8.85714286,3.57142857 L6.71428571,6.57142857 L9.28571429,5.28571429 C9.28571429,5.28571429 9.71428571,4.85714286 9.28571429,4.42857143 C9.28571429,4 8.85714286,3.57142857 8.85714286,3.57142857 Z"/>
    <path fill="#FBB040" d="M2.84674603,12.9958495 C3.26492062,12.9958495 3.18593034,12.9463669 3.31611638,12.8739054 C3.61817587,12.7057793 5.68944099,8.71278459 7.71755476,6.82136602 C9.74566852,4.92994746 10.0045767,5.56042032 8.88479895,3.50297723 C8.88479895,3.50297723 9.74782609,5.14220665 9.01425302,5.26830123 C8.43818241,5.36707531 7.11990847,4.12294221 7.61183393,3.00490368 C8.09081399,1.91418564 10.0196796,2.12014011 10.90644,3.00910683 C10.8783916,2.96287215 10.8503432,2.91663748 10.8222949,2.87250438 C10.3044786,2.2525394 9.50402092,1.90367776 8.71003596,1.90367776 C7.19973848,1.90367776 6.82000654,2.42697023 3.92023537,7.61996497 C2.38779934,10.3654067 2.01083193,11.5735079 2.00629069,12.1698182 C2,12.9958495 2.00629069,12.9958495 2.84674603,12.9958495 Z"/>
  </g>
</svg>
