<svg xmlns="http://www.w3.org/2000/svg" width="11" height="14" viewBox="0 0 11 14">
  <g fill="none" fill-rule="evenodd">
    <path fill="#FF3333" d="M10.3883295,2.34395797 C10.7784897,3.01330998 11,3.78563923 11,4.60945709 C11,6.32084063 10.0434783,7.81155867 8.62379863,8.60595447 C8.52311213,8.66234676 8.48535469,8.78739054 8.5382151,8.88791594 L11,14 L3.80179662,14 L0.39640677,14 C0.177477356,14 0,13.8229883 0,13.5961056 L0,0.403894424 C0,0.180829693 0.173034668,0 0.39640677,0 L6.60359323,0 C6.65179841,0 6.69799391,0.00858185499 6.74072767,0.0243883348 C8.24196132,0.168630052 9.53561985,0.996161734 10.2926773,2.18458844 C10.2657279,2.15232273 10.3185823,2.27403722 10.3883295,2.34395797 Z"/>
    <path fill="#FBB040" d="M0.987870363,13.9951578 C1.47574073,13.9951578 1.38358539,13.937428 1.53546911,13.8528897 C1.88787185,13.6567426 4.30434783,8.99824869 6.67048055,6.7915937 C9.03661327,4.5849387 9.33867277,5.32049037 8.03226545,2.92014011 C8.03226545,2.92014011 9.03913043,4.83257443 8.18329519,4.97968476 C7.51121281,5.09492119 5.97322654,3.64343257 6.54713959,2.33905429 C7.10594966,1.06654991 9.35629291,1.30683012 10.3908467,2.34395797 C10.3581236,2.29001751 10.3254005,2.23607706 10.2926773,2.18458844 C9.68855835,1.46129597 8.75469108,1.05429072 7.82837529,1.05429072 C6.06636156,1.05429072 5.62334096,1.6647986 2.2402746,7.72329247 C0.452432567,10.9263078 0.0126372499,12.3357592 0.00733914025,13.0314545 C-1.49533164e-15,13.9951578 0.00733914025,13.9951578 0.987870363,13.9951578 Z"/>
  </g>
</svg>
